ffmpeg version 6.1.1-3ubuntu5 Copyright (c) 2000-2023 the FFmpeg developers
  built with gcc 13 (Ubuntu 13.2.0-23ubuntu3)
  configuration: --prefix=/usr --extra-version=3ubuntu5 --toolchain=hardened --libdir=/usr/lib/x86_64-linux-gnu --incdir=/usr/include/x86_64-linux-gnu --arch=amd64 --enable-gpl --disable-stripping --disable-omx --enable-gnutls --enable-libaom --enable-libass --enable-libbs2b --enable-libcaca --enable-libcdio --enable-libcodec2 --enable-libdav1d --enable-libflite --enable-libfontconfig --enable-libfreetype --enable-libfribidi --enable-libglslang --enable-libgme --enable-libgsm --enable-libharfbuzz --enable-libmp3lame --enable-libmysofa --enable-libopenjpeg --enable-libopenmpt --enable-libopus --enable-librubberband --enable-libshine --enable-libsnappy --enable-libsoxr --enable-libspeex --enable-libtheora --enable-libtwolame --enable-libvidstab --enable-libvorbis --enable-libvpx --enable-libwebp --enable-libx265 --enable-libxml2 --enable-libxvid --enable-libzimg --enable-openal --enable-opencl --enable-opengl --disable-sndio --enable-libvpl --disable-libmfx --enable-libdc1394 --enable-libdrm --enable-libiec61883 --enable-chromaprint --enable-frei0r --enable-ladspa --enable-libbluray --enable-libjack --enable-libpulse --enable-librabbitmq --enable-librist --enable-libsrt --enable-libssh --enable-libsvtav1 --enable-libx264 --enable-libzmq --enable-libzvbi --enable-lv2 --enable-sdl2 --enable-libplacebo --enable-librav1e --enable-pocketsphinx --enable-librsvg --enable-libjxl --enable-shared
  libavutil      58. 29.100 / 58. 29.100
  libavcodec     60. 31.102 / 60. 31.102
  libavformat    60. 16.100 / 60. 16.100
  libavdevice    60.  3.100 / 60.  3.100
  libavfilter     9. 12.100 /  9. 12.100
  libswscale      7.  5.100 /  7.  5.100
  libswresample   4. 12.100 /  4. 12.100
  libpostproc    57.  3.100 / 57.  3.100
[x11grab @ 0x56537b555680] Stream #0: not enough frames to estimate rate; consider increasing probesize
Input #0, x11grab, from ':97':
  Duration: N/A, start: 1780915804.347820, bitrate: 884736 kb/s
  Stream #0:0: Video: rawvideo (BGR[0] / 0x524742), bgr0, 1280x720, 884736 kb/s, 30 fps, 1000k tbr, 1000k tbn
[aist#1:0/pcm_s16le @ 0x56537b568380] Guessed Channel Layout: stereo
Input #1, pulse, from 'psynet_rec_xvfb.monitor':
  Duration: N/A, start: 1780915805.663262, bitrate: 1536 kb/s
  Stream #1:0: Audio: pcm_s16le, 48000 Hz, 2 channels, s16, 1536 kb/s
Adjusted ts offset for Input #1 by 1315442 us to sync with Input #0.
Stream mapping:
  Stream #0:0 -> #0:0 (rawvideo (native) -> h264 (libx264))
  Stream #1:0 -> #0:1 (pcm_s16le (native) -> aac (native))
Press [q] to stop, [?] for help
[libx264 @ 0x56537b5697c0] using cpu capabilities: MMX2 SSE2Fast SSSE3 SSE4.2 AVX FMA3 BMI2 AVX2 AVX512
[libx264 @ 0x56537b5697c0] profile Constrained Baseline, level 3.1, 4:2:0, 8-bit
[libx264 @ 0x56537b5697c0] 264 - core 164 r3108 31e19f9 - H.264/MPEG-4 AVC codec - Copyleft 2003-2023 - http://www.videolan.org/x264.html - options: cabac=0 ref=1 deblock=0:0:0 analyse=0:0 me=dia subme=0 psy=1 psy_rd=1.00:0.00 mixed_ref=0 me_range=16 chroma_me=1 trellis=0 8x8dct=0 cqm=0 deadzone=21,11 fast_pskip=1 chroma_qp_offset=0 threads=4 lookahead_threads=4 sliced_threads=1 slices=4 nr=0 decimate=1 interlaced=0 bluray_compat=0 constrained_intra=0 bframes=0 weightp=0 keyint=250 keyint_min=25 scenecut=0 intra_refresh=0 rc=crf mbtree=0 crf=23.0 qcomp=0.60 qpmin=0 qpmax=69 qpstep=4 ip_ratio=1.40 aq=0
Output #0, mp4, to 'evidence/participant_xvfb_isync.mp4':
  Metadata:
    encoder         : Lavf60.16.100
  Stream #0:0: Video: h264 (avc1 / 0x31637661), yuv420p(tv, progressive), 1280x720, q=2-31, 30 fps, 15360 tbn
    Metadata:
      encoder         : Lavc60.31.102 libx264
    Side data:
      cpb: bitrate max/min/avg: 0/0/0 buffer size: 0 vbv_delay: N/A
  Stream #0:1: Audio: aac (LC) (mp4a / 0x6134706D), 48000 Hz, stereo, fltp, 128 kb/s
    Metadata:
      encoder         : Lavc60.31.102 aac
frame=    0 fps=0.0 q=0.0 size=       0kB time=N/A bitrate=N/A speed=N/A    
frame=   67 fps=0.0 q=13.0 size=       0kB time=00:00:02.20 bitrate=   0.2kbits/s dup=59 drop=41 speed=4.15x    
frame=   92 fps= 89 q=13.0 size=       0kB time=00:00:03.06 bitrate=   0.1kbits/s dup=59 drop=57 speed=2.97x    
frame=  107 fps= 69 q=13.0 size=       0kB time=00:00:03.53 bitrate=   0.1kbits/s dup=59 drop=57 speed=2.29x    
frame=  122 fps= 60 q=17.0 size=       0kB time=00:00:04.03 bitrate=   0.1kbits/s dup=59 drop=57 speed=1.97x    
frame=  137 fps= 54 q=13.0 size=       0kB time=00:00:04.55 bitrate=   0.1kbits/s dup=59 drop=57 speed=1.78x    
frame=  152 fps= 50 q=17.0 size=       0kB time=00:00:05.06 bitrate=   0.1kbits/s dup=59 drop=57 speed=1.66x    
frame=  166 fps= 47 q=13.0 size=       0kB time=00:00:05.50 bitrate=   0.1kbits/s dup=59 drop=57 speed=1.54x    
frame=  182 fps= 45 q=14.0 size=       0kB time=00:00:06.03 bitrate=   0.1kbits/s dup=59 drop=57 speed=1.48x    
frame=  197 fps= 43 q=13.0 size=     256kB time=00:00:06.53 bitrate= 321.1kbits/s dup=59 drop=57 speed=1.43x    
frame=  212 fps= 42 q=13.0 size=     256kB time=00:00:07.03 bitrate= 298.2kbits/s dup=59 drop=57 speed=1.38x    
frame=  228 fps= 41 q=13.0 size=     256kB time=00:00:07.56 bitrate= 277.2kbits/s dup=59 drop=57 speed=1.35x    
frame=  243 fps= 40 q=13.0 size=     256kB time=00:00:08.06 bitrate= 260.0kbits/s dup=59 drop=57 speed=1.32x    
frame=  258 fps= 39 q=13.0 size=     256kB time=00:00:08.56 bitrate= 244.8kbits/s dup=59 drop=57 speed= 1.3x    
frame=  273 fps= 38 q=13.0 size=     256kB time=00:00:09.10 bitrate= 230.5kbits/s dup=59 drop=57 speed=1.28x    
frame=  289 fps= 38 q=13.0 size=     256kB time=00:00:09.60 bitrate= 218.5kbits/s dup=59 drop=57 speed=1.26x    
frame=  303 fps= 37 q=14.0 size=     256kB time=00:00:10.08 bitrate= 208.1kbits/s dup=59 drop=57 speed=1.24x    
frame=  318 fps= 37 q=15.0 size=     256kB time=00:00:10.56 bitrate= 198.5kbits/s dup=59 drop=57 speed=1.23x    
frame=  334 fps= 37 q=13.0 size=     256kB time=00:00:11.10 bitrate= 189.0kbits/s dup=59 drop=57 speed=1.22x    
frame=  348 fps= 36 q=13.0 size=     256kB time=00:00:11.57 bitrate= 181.2kbits/s dup=59 drop=57 speed= 1.2x    
frame=  363 fps= 36 q=13.0 size=     256kB time=00:00:12.08 bitrate= 173.5kbits/s dup=59 drop=57 speed=1.19x    
frame=  378 fps= 36 q=13.0 size=     256kB time=00:00:12.59 bitrate= 166.5kbits/s dup=59 drop=57 speed=1.18x    
frame=  394 fps= 35 q=14.0 size=     256kB time=00:00:13.10 bitrate= 160.1kbits/s dup=59 drop=57 speed=1.18x    
frame=  409 fps= 35 q=13.0 size=     256kB time=00:00:13.60 bitrate= 154.2kbits/s dup=59 drop=57 speed=1.17x    
frame=  424 fps= 35 q=14.0 size=     256kB time=00:00:14.10 bitrate= 148.8kbits/s dup=59 drop=57 speed=1.16x    
frame=  440 fps= 35 q=13.0 size=     256kB time=00:00:14.63 bitrate= 143.3kbits/s dup=59 drop=57 speed=1.16x    
frame=  455 fps= 35 q=13.0 size=     256kB time=00:00:15.13 bitrate= 138.6kbits/s dup=59 drop=57 speed=1.15x    
frame=  469 fps= 34 q=13.0 size=     256kB time=00:00:15.62 bitrate= 134.2kbits/s dup=59 drop=57 speed=1.14x    
frame=  484 fps= 34 q=13.0 size=     256kB time=00:00:16.13 bitrate= 130.0kbits/s dup=59 drop=57 speed=1.14x    
frame=  499 fps= 34 q=14.0 size=     256kB time=00:00:16.60 bitrate= 126.4kbits/s dup=59 drop=57 speed=1.13x    
frame=  515 fps= 34 q=13.0 size=     512kB time=00:00:17.13 bitrate= 244.8kbits/s dup=59 drop=57 speed=1.13x    
frame=  530 fps= 34 q=13.0 size=     512kB time=00:00:17.63 bitrate= 237.9kbits/s dup=59 drop=57 speed=1.12x    
frame=  546 fps= 34 q=16.0 size=     512kB time=00:00:18.16 bitrate= 230.9kbits/s dup=59 drop=57 speed=1.12x    
frame=  561 fps= 34 q=13.0 size=     512kB time=00:00:18.66 bitrate= 224.7kbits/s dup=59 drop=57 speed=1.12x    
frame=  576 fps= 33 q=13.0 size=     512kB time=00:00:19.16 bitrate= 218.9kbits/s dup=59 drop=57 speed=1.11x    
frame=  590 fps= 33 q=13.0 size=     512kB time=00:00:19.65 bitrate= 213.4kbits/s dup=59 drop=57 speed=1.11x    
frame=  606 fps= 33 q=13.0 size=     512kB time=00:00:20.16 bitrate= 208.0kbits/s dup=59 drop=57 speed=1.11x    
frame=  621 fps= 33 q=13.0 size=     512kB time=00:00:20.66 bitrate= 203.0kbits/s dup=59 drop=57 speed= 1.1x    
frame=  636 fps= 33 q=13.0 size=     512kB time=00:00:21.16 bitrate= 198.2kbits/s dup=59 drop=57 speed= 1.1x    
frame=  651 fps= 33 q=13.0 size=     512kB time=00:00:21.66 bitrate= 193.6kbits/s dup=59 drop=57 speed= 1.1x    
frame=  667 fps= 33 q=13.0 size=     512kB time=00:00:22.20 bitrate= 188.9kbits/s dup=59 drop=57 speed= 1.1x    
frame=  681 fps= 33 q=13.0 size=     512kB time=00:00:22.69 bitrate= 184.9kbits/s dup=59 drop=57 speed=1.09x    
frame=  696 fps= 33 q=13.0 size=     512kB time=00:00:23.20 bitrate= 180.8kbits/s dup=59 drop=57 speed=1.09x    
frame=  712 fps= 33 q=13.0 size=     512kB time=00:00:23.70 bitrate= 177.0kbits/s dup=59 drop=57 speed=1.09x    
frame=  727 fps= 33 q=13.0 size=     512kB time=00:00:24.20 bitrate= 173.3kbits/s dup=59 drop=57 speed=1.09x    
frame=  742 fps= 33 q=13.0 size=     512kB time=00:00:24.70 bitrate= 169.8kbits/s dup=59 drop=57 speed=1.09x    
frame=  758 fps= 33 q=13.0 size=     512kB time=00:00:25.23 bitrate= 166.2kbits/s dup=59 drop=57 speed=1.09x    
frame=  772 fps= 33 q=13.0 size=     512kB time=00:00:25.73 bitrate= 163.0kbits/s dup=59 drop=57 speed=1.08x    
frame=  787 fps= 32 q=14.0 size=     512kB time=00:00:26.20 bitrate= 160.1kbits/s dup=59 drop=57 speed=1.08x    
frame=  802 fps= 32 q=13.0 size=     512kB time=00:00:26.70 bitrate= 157.1kbits/s dup=59 drop=57 speed=1.08x    
frame=  817 fps= 32 q=13.0 size=     512kB time=00:00:27.20 bitrate= 154.2kbits/s dup=59 drop=57 speed=1.08x    
frame=  833 fps= 32 q=13.0 size=     512kB time=00:00:27.73 bitrate= 151.3kbits/s dup=59 drop=57 speed=1.08x    
frame=  848 fps= 32 q=13.0 size=     512kB time=00:00:28.23 bitrate= 148.6kbits/s dup=59 drop=57 speed=1.07x    
frame=  862 fps= 32 q=13.0 size=     512kB time=00:00:28.72 bitrate= 146.0kbits/s dup=59 drop=57 speed=1.07x    
frame=  878 fps= 32 q=13.0 size=     512kB time=00:00:29.23 bitrate= 143.5kbits/s dup=59 drop=57 speed=1.07x    
frame=  893 fps= 32 q=13.0 size=     512kB time=00:00:29.73 bitrate= 141.1kbits/s dup=59 drop=57 speed=1.07x    
frame=  908 fps= 32 q=13.0 size=     512kB time=00:00:30.23 bitrate= 138.7kbits/s dup=59 drop=57 speed=1.07x    
frame=  924 fps= 32 q=14.0 size=     512kB time=00:00:30.76 bitrate= 136.3kbits/s dup=59 drop=57 speed=1.07x    
frame=  939 fps= 32 q=13.0 size=     768kB time=00:00:31.26 bitrate= 201.2kbits/s dup=59 drop=57 speed=1.07x    
frame=  953 fps= 32 q=13.0 size=     768kB time=00:00:31.75 bitrate= 198.1kbits/s dup=59 drop=57 speed=1.07x    
frame=  969 fps= 32 q=13.0 size=     768kB time=00:00:32.26 bitrate= 195.0kbits/s dup=59 drop=57 speed=1.07x    
frame=  985 fps= 32 q=13.0 size=     768kB time=00:00:32.83 bitrate= 191.6kbits/s dup=59 drop=57 speed=1.07x    
frame= 1000 fps= 32 q=10.0 size=     768kB time=00:00:33.33 bitrate= 188.8kbits/s dup=59 drop=57 speed=1.06x    
frame= 1016 fps= 32 q=13.0 size=     768kB time=00:00:33.83 bitrate= 186.0kbits/s dup=59 drop=57 speed=1.06x    
frame= 1031 fps= 32 q=13.0 size=     768kB time=00:00:34.33 bitrate= 183.3kbits/s dup=59 drop=57 speed=1.06x    
[out#0/mp4 @ 0x56537b565a00] video:692kB audio:109kB subtitle:0kB other streams:0kB global headers:0kB muxing overhead: 5.098839%
frame= 1041 fps= 32 q=13.0 Lsize=     842kB time=00:00:34.69 bitrate= 198.8kbits/s dup=59 drop=57 speed=1.06x    
[libx264 @ 0x56537b5697c0] frame I:5     Avg QP:12.20  size: 28643
[libx264 @ 0x56537b5697c0] frame P:1036  Avg QP:13.40  size:   545
[libx264 @ 0x56537b5697c0] mb I  I16..4: 100.0%  0.0%  0.0%
[libx264 @ 0x56537b5697c0] mb P  I16..4:  0.7%  0.0%  0.0%  P16..4:  0.5%  0.0%  0.0%  0.0%  0.0%    skip:98.8%
[libx264 @ 0x56537b5697c0] coded y,uvDC,uvAC intra: 7.5% 10.4% 7.7% inter: 0.2% 0.4% 0.2%
[libx264 @ 0x56537b5697c0] i16 v,h,dc,p: 80% 13%  7%  0%
[libx264 @ 0x56537b5697c0] i8c dc,h,v,p: 83% 12%  4%  0%
[libx264 @ 0x56537b5697c0] kb/s:163.28
[aac @ 0x56537b56cbc0] Qavg: 55975.316
Exiting normally, received signal 2.
